<svg width="60" height="60" viewBox="0 0 60 60" fill="none" xmlns="http://www.w3.org/2000/svg">
<rect opacity="0.1" width="60" height="60" rx="30" fill="#5B93FF"/>
<path fill-rule="evenodd" clip-rule="evenodd" d="M33.85 20.5006C34.481 20.5006 35.111 20.5896 35.71 20.7906C39.401 21.9906 40.731 26.0406 39.62 29.5806C38.99 31.3896 37.96 33.0406 36.611 34.3896C34.68 36.2596 32.561 37.9196 30.28 39.3496L30.03 39.5006L29.77 39.3396C27.481 37.9196 25.35 36.2596 23.401 34.3796C22.061 33.0306 21.03 31.3896 20.39 29.5806C19.26 26.0406 20.59 21.9906 24.321 20.7696C24.611 20.6696 24.91 20.5996 25.21 20.5606H25.33C25.611 20.5196 25.89 20.5006 26.17 20.5006H26.28C26.91 20.5196 27.52 20.6296 28.111 20.8306H28.17C28.21 20.8496 28.24 20.8706 28.26 20.8896C28.481 20.9606 28.69 21.0406 28.89 21.1506L29.27 21.3206C29.3618 21.3696 29.4649 21.4444 29.554 21.5091C29.6104 21.5501 29.6612 21.587 29.7 21.6106C29.7163 21.6203 29.7329 21.63 29.7496 21.6397C29.8354 21.6898 29.9247 21.7419 30 21.7996C31.111 20.9506 32.46 20.4906 33.85 20.5006ZM36.51 27.7006C36.92 27.6896 37.27 27.3606 37.3 26.9396V26.8206C37.33 25.4196 36.481 24.1506 35.19 23.6606C34.78 23.5196 34.33 23.7406 34.18 24.1606C34.04 24.5806 34.26 25.0406 34.68 25.1896C35.321 25.4296 35.75 26.0606 35.75 26.7596V26.7906C35.731 27.0196 35.8 27.2406 35.94 27.4106C36.08 27.5806 36.29 27.6796 36.51 27.7006Z" fill="#5B93FF"/>
</svg>
