<svg width="15" height="4" viewBox="0 0 15 4" fill="none" xmlns="http://www.w3.org/2000/svg">
<path d="M14.3912 0.512567C13.7078 -0.170848 12.5998 -0.170848 11.9164 0.512567C11.233 1.19598 11.233 2.30402 11.9164 2.98744C12.5998 3.67085 13.7078 3.67085 14.3912 2.98744C15.0747 2.30405 15.0747 1.19601 14.3912 0.512567Z" fill="black"/>
<path d="M8.89125 0.512567C8.20783 -0.170848 7.09979 -0.170848 6.41638 0.512567C5.73296 1.19598 5.73296 2.30402 6.41638 2.98744C7.09979 3.67085 8.20783 3.67085 8.89125 2.98744C9.57466 2.30405 9.57466 1.19601 8.89125 0.512567Z" fill="black"/>
<path d="M3.39125 0.512567C2.70783 -0.170848 1.59979 -0.170848 0.916373 0.512567C0.232956 1.19598 0.232956 2.30402 0.916373 2.98744C1.59979 3.67085 2.70783 3.67085 3.39125 2.98744C4.07466 2.30405 4.07466 1.19601 3.39125 0.512567Z" fill="black"/>
</svg>
