<svg width="8" height="8" viewBox="0 0 8 8" fill="none" xmlns="http://www.w3.org/2000/svg">
<path fill-rule="evenodd" clip-rule="evenodd" d="M2.90683 7.6143L6.56783 3.17958C6.76679 2.94043 6.83754 2.66394 6.77121 2.38242C6.71374 2.12649 6.54572 1.88315 6.29369 1.69854L5.67911 1.24123C5.14411 0.842646 4.48088 0.884602 4.10063 1.34192L3.68944 1.84161C3.63638 1.90413 3.64964 1.99643 3.71597 2.04677C3.71597 2.04677 4.75501 2.82715 4.77712 2.84393C4.84787 2.90687 4.90092 2.99078 4.91419 3.09147C4.9363 3.28866 4.79039 3.47327 4.57373 3.49844C4.47204 3.51103 4.37477 3.48166 4.30402 3.42712L3.21192 2.61318C3.15886 2.57584 3.07927 2.58381 3.03506 2.63415L0.439641 5.78083C0.271624 5.97802 0.214145 6.23395 0.271624 6.48149L0.603236 7.82827C0.620922 7.89959 0.687244 7.94994 0.766831 7.94994L2.22592 7.93316C2.49121 7.92896 2.73882 7.81568 2.90683 7.6143ZM4.94973 7.19475H7.32894C7.56107 7.19475 7.74986 7.3739 7.74986 7.59416C7.74986 7.81485 7.56107 7.99358 7.32894 7.99358H4.94973C4.71761 7.99358 4.52881 7.81485 4.52881 7.59416C4.52881 7.3739 4.71761 7.19475 4.94973 7.19475Z" fill="#5B93FF"/>
</svg>
