<svg width="18" height="17" viewBox="0 0 18 17" fill="none" xmlns="http://www.w3.org/2000/svg">
<path fill-rule="evenodd" clip-rule="evenodd" d="M6.57946 7.85833C6.21487 7.85833 5.9266 8.14166 5.9266 8.5C5.9266 8.85 6.21487 9.14166 6.57946 9.14166H11.6667V13.125C11.6667 15.1667 9.97941 16.8333 7.89365 16.8333H3.76453C1.68726 16.8333 0 15.175 0 13.1333V3.875C0 1.825 1.69574 0.166664 3.77301 0.166664H7.91061C9.97941 0.166664 11.6667 1.825 11.6667 3.86666V7.85833H6.57946ZM14.6919 5.61684L17.1252 8.04184C17.2502 8.16684 17.3169 8.32517 17.3169 8.50017C17.3169 8.66684 17.2502 8.8335 17.1252 8.95017L14.6919 11.3752C14.5669 11.5002 14.4002 11.5668 14.2419 11.5668C14.0752 11.5668 13.9085 11.5002 13.7835 11.3752C13.5335 11.1252 13.5335 10.7168 13.7835 10.4668L15.1169 9.14184H11.6669V7.8585H15.1169L13.7835 6.5335C13.5335 6.2835 13.5335 5.87517 13.7835 5.62517C14.0335 5.36684 14.4419 5.36684 14.6919 5.61684Z" fill="#030229"/>
</svg>
