<svg width="84" height="15" viewBox="0 0 84 15" fill="none" xmlns="http://www.w3.org/2000/svg">
<path d="M12.0868 9.16477C11.8905 9.35019 11.8004 9.61834 11.8451 9.88131L12.5186 13.5157C12.5754 13.8238 12.4421 14.1355 12.1777 14.3135C11.9186 14.4982 11.5738 14.5203 11.2912 14.3726L7.93561 12.6662C7.81893 12.6056 7.68938 12.5731 7.55679 12.5694H7.35147C7.28025 12.5798 7.21054 12.6019 7.1469 12.6359L3.79053 14.3504C3.6246 14.4317 3.43671 14.4605 3.2526 14.4317C2.80407 14.349 2.5048 13.9323 2.57829 13.4928L3.2526 9.85841C3.2973 9.59322 3.20714 9.3236 3.01091 9.13523L0.27505 6.54978C0.0462413 6.33334 -0.0333116 6.00831 0.0712436 5.71505C0.172768 5.42252 0.431883 5.20904 0.744791 5.16103L4.51029 4.62842C4.79668 4.59961 5.04822 4.42971 5.17702 4.17856L6.83627 0.861795C6.87566 0.787925 6.92643 0.719965 6.9878 0.662346L7.05598 0.610637C7.09159 0.572225 7.13251 0.540461 7.17797 0.514607L7.26055 0.485059L7.38935 0.43335H7.70832C7.99319 0.462159 8.24397 0.628366 8.37505 0.876569L10.0563 4.17856C10.1775 4.42011 10.4131 4.58779 10.6851 4.62842L14.4506 5.16103C14.7688 5.20535 15.0348 5.41957 15.1401 5.71505C15.2393 6.01127 15.1537 6.3363 14.9204 6.54978L12.0868 9.16477Z" fill="#FFD66B"/>
<path d="M29.262 9.16477C29.0658 9.35019 28.9757 9.61834 29.0204 9.88131L29.6939 13.5157C29.7507 13.8238 29.6174 14.1355 29.353 14.3135C29.0939 14.4982 28.7491 14.5203 28.4665 14.3726L25.1109 12.6662C24.9942 12.6056 24.8647 12.5731 24.7321 12.5694H24.5268C24.4555 12.5798 24.3858 12.6019 24.3222 12.6359L20.9658 14.3504C20.7999 14.4317 20.612 14.4605 20.4279 14.4317C19.9794 14.349 19.6801 13.9323 19.7536 13.4928L20.4279 9.85841C20.4726 9.59322 20.3824 9.3236 20.1862 9.13523L17.4503 6.54978C17.2215 6.33334 17.142 6.00831 17.2465 5.71505C17.3481 5.42252 17.6072 5.20904 17.9201 5.16103L21.6856 4.62842C21.972 4.59961 22.2235 4.42971 22.3523 4.17856L24.0116 0.861795C24.051 0.787925 24.1017 0.719965 24.1631 0.662346L24.2313 0.610637C24.2669 0.572225 24.3078 0.540461 24.3533 0.514607L24.4358 0.485059L24.5646 0.43335H24.8836C25.1685 0.462159 25.4193 0.628366 25.5503 0.876569L27.2316 4.17856C27.3528 4.42011 27.5884 4.58779 27.8604 4.62842L31.6259 5.16103C31.9441 5.20535 32.21 5.41957 32.3154 5.71505C32.4146 6.01127 32.329 6.3363 32.0956 6.54978L29.262 9.16477Z" fill="#FFD66B"/>
<path d="M46.4378 9.16477C46.2416 9.35019 46.1514 9.61834 46.1961 9.88131L46.8697 13.5157C46.9265 13.8238 46.7932 14.1355 46.5287 14.3135C46.2696 14.4982 45.9249 14.5203 45.6423 14.3726L42.2867 12.6662C42.17 12.6056 42.0405 12.5731 41.9079 12.5694H41.7025C41.6313 12.5798 41.5616 12.6019 41.498 12.6359L38.1416 14.3504C37.9757 14.4317 37.7878 14.4605 37.6037 14.4317C37.1551 14.349 36.8559 13.9323 36.9294 13.4928L37.6037 9.85841C37.6484 9.59322 37.5582 9.3236 37.362 9.13523L34.6261 6.54978C34.3973 6.33334 34.3178 6.00831 34.4223 5.71505C34.5238 5.42252 34.783 5.20904 35.0959 5.16103L38.8614 4.62842C39.1478 4.59961 39.3993 4.42971 39.5281 4.17856L41.1873 0.861795C41.2267 0.787925 41.2775 0.719965 41.3389 0.662346L41.4071 0.610637C41.4427 0.572225 41.4836 0.540461 41.529 0.514607L41.6116 0.485059L41.7404 0.43335H42.0594C42.3443 0.462159 42.595 0.628366 42.7261 0.876569L44.4073 4.17856C44.5286 4.42011 44.7642 4.58779 45.0362 4.62842L48.8017 5.16103C49.1199 5.20535 49.3858 5.41957 49.4911 5.71505C49.5904 6.01127 49.5048 6.3363 49.2714 6.54978L46.4378 9.16477Z" fill="#FFD66B"/>
<path d="M63.6136 9.16477C63.4174 9.35019 63.3272 9.61834 63.3719 9.88131L64.0455 13.5157C64.1023 13.8238 63.9689 14.1355 63.7045 14.3135C63.4454 14.4982 63.1007 14.5203 62.8181 14.3726L59.4625 12.6662C59.3458 12.6056 59.2162 12.5731 59.0836 12.5694H58.8783C58.8071 12.5798 58.7374 12.6019 58.6738 12.6359L55.3174 14.3504C55.1515 14.4317 54.9636 14.4605 54.7795 14.4317C54.3309 14.349 54.0317 13.9323 54.1052 13.4928L54.7795 9.85841C54.8242 9.59322 54.734 9.3236 54.5378 9.13523L51.8019 6.54978C51.5731 6.33334 51.4935 6.00831 51.5981 5.71505C51.6996 5.42252 51.9587 5.20904 52.2716 5.16103L56.0371 4.62842C56.3235 4.59961 56.5751 4.42971 56.7039 4.17856L58.3631 0.861795C58.4025 0.787925 58.4533 0.719965 58.5147 0.662346L58.5828 0.610637C58.6184 0.572225 58.6594 0.540461 58.7048 0.514607L58.7874 0.485059L58.9162 0.43335H59.2352C59.52 0.462159 59.7708 0.628366 59.9019 0.876569L61.5831 4.17856C61.7043 4.42011 61.94 4.58779 62.212 4.62842L65.9775 5.16103C66.2957 5.20535 66.5616 5.41957 66.6669 5.71505C66.7662 6.01127 66.6806 6.3363 66.4472 6.54978L63.6136 9.16477Z" fill="#FFD66B"/>
<path opacity="0.4" d="M80.7889 9.16477C80.5927 9.35019 80.5025 9.61834 80.5472 9.88131L81.2208 13.5157C81.2776 13.8238 81.1442 14.1355 80.8798 14.3135C80.6207 14.4982 80.276 14.5203 79.9934 14.3726L76.6378 12.6662C76.5211 12.6056 76.3915 12.5731 76.2589 12.5694H76.0536C75.9824 12.5798 75.9127 12.6019 75.8491 12.6359L72.4927 14.3504C72.3268 14.4317 72.1389 14.4605 71.9547 14.4317C71.5062 14.349 71.207 13.9323 71.2804 13.4928L71.9547 9.85841C71.9994 9.59322 71.9093 9.3236 71.7131 9.13523L68.9772 6.54978C68.7484 6.33334 68.6688 6.00831 68.7734 5.71505C68.8749 5.42252 69.134 5.20904 69.4469 5.16103L73.2124 4.62842C73.4988 4.59961 73.7504 4.42971 73.8792 4.17856L75.5384 0.861795C75.5778 0.787925 75.6286 0.719965 75.6899 0.662346L75.7581 0.610637C75.7937 0.572225 75.8347 0.540461 75.8801 0.514607L75.9627 0.485059L76.0915 0.43335H76.4105C76.6953 0.462159 76.9461 0.628366 77.0772 0.876569L78.7584 4.17856C78.8796 4.42011 79.1153 4.58779 79.3873 4.62842L83.1528 5.16103C83.471 5.20535 83.7369 5.41957 83.8422 5.71505C83.9415 6.01127 83.8559 6.3363 83.6225 6.54978L80.7889 9.16477Z" fill="#FFD66B"/>
</svg>
